<?xml version="1.0" standalone="no"?>
<!DOCTYPE svg PUBLIC "-//W3C//DTD SVG 20010904//EN"
 "http://www.w3.org/TR/2001/REC-SVG-20010904/DTD/svg10.dtd">
<svg version="1.0" xmlns="http://www.w3.org/2000/svg"
 width="260.000000pt" height="260.000000pt" viewBox="0 0 260.000000 260.000000"
 preserveAspectRatio="xMidYMid meet">
<metadata>
Created by potrace 1.11, written by Peter Selinger 2001-2013
</metadata>
<g transform="translate(0.000000,260.000000) scale(0.100000,-0.100000)"
fill="#000000" stroke="none">
<path d="M1230 1980 c0 -5 5 -10 10 -10 6 0 10 5 10 10 0 6 -4 10 -10 10 -5 0
-10 -4 -10 -10z"/>
<path d="M1357 1979 c7 -7 15 -10 18 -7 3 3 -2 9 -12 12 -14 6 -15 5 -6 -5z"/>
<path d="M1136 1967 c3 -10 9 -15 12 -12 3 3 0 11 -7 18 -10 9 -11 8 -5 -6z"/>
<path d="M1191 1970 c0 -8 4 -22 9 -30 12 -18 12 -2 0 25 -6 13 -9 15 -9 5z"/>
<path d="M1305 1960 c-3 -6 1 -7 9 -4 18 7 21 14 7 14 -6 0 -13 -4 -16 -10z"/>
<path d="M1411 1967 c2 -1 13 -9 24 -17 19 -14 19 -14 6 3 -7 9 -18 17 -24 17
-6 0 -8 -1 -6 -3z"/>
<path d="M1500 1960 c-9 -6 -10 -10 -3 -10 6 0 15 5 18 10 8 12 4 12 -15 0z"/>
<path d="M1117 1947 c-3 -8 1 -14 8 -14 7 0 11 6 8 14 -3 7 -6 13 -8 13 -2 0
-5 -6 -8 -13z"/>
<path d="M1323 1942 c-7 -4 -9 -13 -4 -21 6 -9 10 -7 14 8 3 12 4 21 4 21 -1
0 -7 -4 -14 -8z"/>
<path d="M1405 1942 c-13 -9 -17 -32 -6 -32 5 0 11 9 14 20 6 22 6 22 -8 12z"/>
<path d="M1028 1933 c7 -3 16 -2 19 1 4 3 -2 6 -13 5 -11 0 -14 -3 -6 -6z"/>
<path d="M1168 1933 c-10 -2 -18 -9 -18 -15 0 -6 3 -8 7 -5 3 4 11 3 17 -3 8
-6 12 -3 12 11 0 10 0 18 -1 18 0 -1 -8 -3 -17 -6z"/>
<path d="M1077 1916 c-3 -8 0 -17 7 -19 10 -4 12 1 9 14 -6 23 -9 24 -16 5z"/>
<path d="M1575 1910 c-3 -6 1 -7 9 -4 18 7 21 14 7 14 -6 0 -13 -4 -16 -10z"/>
<path d="M995 1900 c6 -10 4 -12 -8 -7 -11 4 -14 2 -10 -9 3 -8 8 -12 11 -10
3 3 11 -2 19 -12 13 -15 13 -15 4 4 -6 12 -8 24 -5 27 3 3 0 8 -7 13 -8 5 -10
3 -4 -6z"/>
<path d="M1121 1896 c-9 -10 -8 -15 3 -19 9 -4 18 -1 22 5 5 7 2 8 -6 3 -10
-6 -12 -4 -7 8 8 21 3 22 -12 3z"/>
<path d="M1554 1882 c1 -16 6 -29 12 -29 9 0 9 8 2 29 -13 35 -15 35 -14 0z"/>
<path d="M1370 1890 c-8 -5 -12 -12 -9 -15 4 -3 12 1 19 10 14 17 11 19 -10 5z"/>
<path d="M1413 1885 c0 -8 7 -11 16 -7 13 5 14 3 4 -9 -10 -12 -8 -15 10 -16
12 0 16 1 9 4 -6 3 -10 9 -7 13 3 5 -3 13 -13 19 -14 7 -19 6 -19 -4z"/>
<path d="M1046 1878 c3 -5 9 -7 12 -4 3 3 12 0 21 -6 13 -10 14 -10 4 2 -15
16 -46 23 -37 8z"/>
<path d="M1180 1875 c-11 -13 -10 -14 4 -9 9 3 16 10 16 15 0 13 -6 11 -20 -6z"/>
<path d="M1279 1888 c-5 -18 -6 -38 -1 -34 7 8 12 36 6 36 -2 0 -4 -1 -5 -2z"/>
<path d="M1108 1863 c6 -2 9 -10 6 -15 -4 -7 -2 -8 5 -4 13 9 5 26 -12 25 -9
0 -8 -2 1 -6z"/>
<path d="M1690 1866 c0 -2 7 -7 16 -10 8 -3 12 -2 9 4 -6 10 -25 14 -25 6z"/>
<path d="M940 1851 c0 -7 -5 -9 -12 -5 -7 5 -8 3 -3 -5 5 -9 10 -10 18 -2 6 6
8 14 4 18 -4 3 -7 1 -7 -6z"/>
<path d="M1376 1846 c3 -7 11 -13 19 -13 22 0 18 14 -4 20 -13 3 -18 0 -15 -7z"/>
<path d="M1516 1847 c3 -10 9 -15 12 -12 3 3 0 11 -7 18 -10 9 -11 8 -5 -6z"/>
<path d="M1595 1849 c-4 -6 -5 -12 -2 -15 2 -3 7 2 10 11 7 17 1 20 -8 4z"/>
<path d="M1030 1840 c0 -5 5 -10 11 -10 5 0 7 5 4 10 -3 6 -8 10 -11 10 -2 0
-4 -4 -4 -10z"/>
<path d="M1147 1831 c-3 -13 -1 -18 9 -14 7 2 10 11 7 19 -7 19 -10 18 -16 -5z"/>
<path d="M1480 1838 c-12 -8 -12 -9 2 -5 9 3 19 1 22 -6 3 -9 5 -9 5 0 1 18
-13 23 -29 11z"/>
<path d="M866 1821 c-4 -5 3 -7 14 -4 23 6 26 13 6 13 -8 0 -17 -4 -20 -9z"/>
<path d="M995 1820 c6 -10 4 -12 -11 -6 -15 6 -17 5 -6 -5 9 -9 15 -10 23 -2
8 8 7 13 -2 18 -8 6 -10 4 -4 -5z"/>
<path d="M1350 1821 c0 -6 4 -12 8 -15 5 -3 9 1 9 9 0 8 -4 15 -9 15 -4 0 -8
-4 -8 -9z"/>
<path d="M1427 1813 c4 -10 2 -14 -5 -9 -6 3 -14 1 -18 -5 -4 -7 -3 -9 4 -5 5
3 12 2 14 -4 2 -6 8 -2 15 9 10 15 9 20 -2 25 -10 3 -12 0 -8 -11z"/>
<path d="M1555 1821 c6 -11 4 -13 -10 -7 -15 5 -16 4 -5 -9 7 -8 16 -15 20
-15 10 0 7 27 -5 37 -4 5 -5 2 0 -6z"/>
<path d="M1195 1810 c-4 -6 -11 -8 -16 -5 -5 4 -9 1 -9 -4 0 -16 16 -13 30 4
7 8 10 15 7 15 -3 0 -9 -5 -12 -10z"/>
<path d="M1661 1804 c0 -11 3 -14 6 -6 3 7 2 16 -1 19 -3 4 -6 -2 -5 -13z"/>
<path d="M1750 1805 c0 -8 4 -15 10 -15 5 0 7 7 4 15 -4 8 -8 15 -10 15 -2 0
-4 -7 -4 -15z"/>
<path d="M950 1800 c0 -5 5 -10 11 -10 5 0 7 5 4 10 -3 6 -8 10 -11 10 -2 0
-4 -4 -4 -10z"/>
<path d="M1115 1801 c-3 -5 -2 -12 3 -15 5 -3 9 1 9 9 0 17 -3 19 -12 6z"/>
<path d="M1250 1798 c0 -11 12 -10 30 2 12 7 10 9 -8 7 -12 0 -22 -5 -22 -9z"/>
<path d="M1599 1793 c-1 -5 -1 -12 0 -17 1 -5 -5 -6 -14 -2 -10 3 -14 2 -10
-5 9 -14 28 -6 31 14 1 9 0 17 -2 17 -2 0 -5 -3 -5 -7z"/>
<path d="M922 1761 c-11 -6 -9 -9 6 -13 15 -4 19 -2 15 8 -6 16 -4 16 -21 5z"/>
<path d="M1424 1762 c4 -3 14 -7 22 -8 9 -1 13 0 10 4 -4 3 -14 7 -22 8 -9 1
-13 0 -10 -4z"/>
<path d="M1526 1762 c-3 -5 1 -9 9 -9 8 0 12 4 9 9 -3 4 -7 8 -9 8 -2 0 -6 -4
-9 -8z"/>
<path d="M1722 1761 c-11 -6 -9 -9 6 -13 15 -4 19 -2 15 8 -6 16 -4 16 -21 5z"/>
<path d="M1776 1754 c-3 -7 3 -10 15 -7 26 7 32 19 9 19 -11 0 -22 -6 -24 -12z"/>
<path d="M1388 1735 c6 -11 11 -24 12 -30 1 -5 4 -12 7 -15 4 -3 2 1 -2 9 -6
11 -4 13 8 8 11 -4 14 -2 10 9 -3 8 -8 12 -11 10 -3 -3 -11 2 -19 12 -13 16
-13 15 -5 -3z"/>
<path d="M1813 1732 c-8 -14 -8 -19 1 -19 7 0 13 9 13 19 1 10 1 18 0 18 -1 0
-7 -8 -14 -18z"/>
<path d="M1278 1733 c7 -3 16 -2 19 1 4 3 -2 6 -13 5 -11 0 -14 -3 -6 -6z"/>
<path d="M800 1720 c-12 -7 -10 -9 8 -7 12 0 22 5 22 9 0 11 -12 10 -30 -2z"/>
<path d="M950 1716 c7 -7 13 -7 20 0 6 6 3 10 -10 10 -13 0 -16 -4 -10 -10z"/>
<path d="M1094 1723 c3 -3 17 -7 32 -9 14 -1 23 0 20 3 -3 4 -18 8 -32 9 -14
2 -24 0 -20 -3z"/>
<path d="M1320 1720 c-8 -5 -10 -10 -5 -10 6 0 17 5 25 10 8 5 11 10 5 10 -5
0 -17 -5 -25 -10z"/>
<path d="M1599 1713 c-12 -16 -12 -17 2 -6 9 7 19 10 22 6 4 -3 7 -1 7 5 0 17
-16 15 -31 -5z"/>
<path d="M1750 1723 c0 -5 5 -15 10 -23 7 -12 9 -10 7 8 -1 19 -17 33 -17 15z"/>
<path d="M870 1716 c0 -2 7 -9 15 -16 13 -11 14 -10 9 4 -5 14 -24 23 -24 12z"/>
<path d="M1026 1704 c-5 -14 -4 -15 9 -4 17 14 19 20 6 20 -5 0 -12 -7 -15
-16z"/>
<path d="M1670 1716 c0 -2 7 -9 15 -16 13 -11 14 -10 9 4 -5 14 -24 23 -24 12z"/>
<path d="M739 1708 c-4 -14 -7 -50 -3 -41 3 7 13 10 22 7 15 -5 15 -4 -1 6 -9
6 -15 15 -12 21 4 5 4 9 1 9 -3 0 -6 -1 -7 -2z"/>
<path d="M845 1702 c-13 -9 -17 -32 -6 -32 5 0 11 9 14 20 6 22 6 22 -8 12z"/>
<path d="M1068 1688 c2 -10 9 -18 15 -18 6 0 7 3 4 7 -4 3 -3 11 3 17 6 8 3
12 -9 12 -12 0 -17 -6 -13 -18z"/>
<path d="M1284 1699 c-3 -6 -2 -15 4 -21 6 -6 12 -6 17 3 6 8 4 10 -5 4 -10
-6 -12 -4 -7 8 7 19 2 23 -9 6z"/>
<path d="M1346 1695 c5 -11 4 -16 -3 -12 -5 3 -10 0 -10 -8 0 -10 4 -12 12 -5
7 5 15 7 18 3 4 -3 7 -2 7 4 0 6 -7 16 -15 23 -13 11 -14 10 -9 -5z"/>
<path d="M1436 1695 c-9 -26 -7 -32 5 -12 6 10 9 21 6 23 -2 3 -7 -2 -11 -11z"/>
<path d="M1556 1702 c-2 -4 0 -14 6 -22 8 -12 9 -12 5 2 -3 9 -1 19 6 22 9 3
9 5 0 5 -6 1 -14 -3 -17 -7z"/>
<path d="M1645 1702 c-13 -9 -17 -32 -6 -32 5 0 11 9 14 20 6 22 6 22 -8 12z"/>
<path d="M1735 1690 c-4 -6 -11 -8 -16 -5 -5 4 -9 2 -9 -3 0 -5 8 -12 18 -14
12 -4 18 1 18 13 0 22 -2 23 -11 9z"/>
<path d="M910 1679 c0 -3 9 -9 19 -12 13 -3 18 0 15 7 -5 13 -34 18 -34 5z"/>
<path d="M977 1676 c-4 -10 1 -12 14 -9 23 6 24 9 5 16 -8 3 -17 0 -19 -7z"/>
<path d="M1162 1681 c-11 -6 -9 -9 6 -13 15 -4 19 -2 15 8 -6 16 -4 16 -21 5z"/>
<path d="M796 1661 c-3 -5 0 -14 8 -20 10 -9 15 -8 19 3 4 11 1 13 -10 9 -11
-4 -14 -2 -9 5 4 7 5 12 2 12 -3 0 -7 -4 -10 -9z"/>
<path d="M876 1643 c0 -12 4 -26 9 -30 4 -5 4 -2 0 6 -6 10 -4 13 7 9 8 -4 15
0 15 8 0 7 -5 10 -10 7 -6 -4 -8 0 -5 9 4 8 1 15 -6 15 -6 0 -11 -11 -10 -24z"/>
<path d="M1039 1663 c-1 -5 -1 -12 0 -17 1 -5 -4 -6 -12 -3 -7 3 -14 -1 -14
-8 0 -8 7 -11 15 -7 11 4 13 1 7 -8 -6 -9 -4 -11 4 -6 7 5 10 10 7 14 -3 3 2
11 12 19 16 12 16 13 -2 6 -13 -4 -17 -3 -12 5 4 7 5 12 2 12 -3 0 -7 -3 -7
-7z"/>
<path d="M1115 1661 c6 -11 4 -13 -10 -7 -15 5 -16 4 -5 -9 7 -8 16 -15 20
-15 10 0 7 27 -5 37 -4 5 -5 2 0 -6z"/>
<path d="M1387 1653 c3 -7 6 -13 8 -13 2 0 5 6 8 13 3 8 -1 14 -8 14 -7 0 -11
-6 -8 -14z"/>
<path d="M1678 1651 c5 -13 3 -14 -9 -4 -13 10 -16 10 -16 -1 0 -18 27 -14 38
6 5 10 4 15 -5 15 -9 0 -12 -7 -8 -16z"/>
<path d="M695 1649 c-4 -6 -5 -12 -2 -15 2 -3 7 2 10 11 7 17 1 20 -8 4z"/>
<path d="M1193 1643 c-3 -10 -8 -22 -11 -27 -3 -5 0 -6 5 -3 11 7 25 47 17 47
-3 0 -7 -8 -11 -17z"/>
<path d="M1541 1644 c0 -11 3 -14 6 -6 3 7 2 16 -1 19 -3 4 -6 -2 -5 -13z"/>
<path d="M1610 1651 c-8 -6 -19 -7 -25 -3 -5 3 -4 -1 2 -10 7 -8 10 -18 6 -21
-3 -4 -1 -7 6 -7 7 0 11 6 8 13 -2 6 3 17 12 24 19 14 13 17 -9 4z"/>
<path d="M1858 1643 c-4 -17 -2 -20 10 -16 11 5 13 3 7 -8 -5 -8 -4 -11 0 -6
12 10 16 39 5 32 -5 -3 -10 0 -12 7 -3 7 -7 3 -10 -9z"/>
<path d="M944 1638 c-4 -7 -4 -10 1 -6 4 4 17 2 29 -4 19 -10 20 -10 7 5 -16
20 -27 21 -37 5z"/>
<path d="M1236 1632 c-6 -16 -71 -49 -88 -44 -5 1 -8 -2 -8 -8 0 -5 -7 -10
-15 -10 -8 0 -15 -5 -15 -11 0 -6 -7 -9 -15 -6 -8 4 -17 1 -21 -5 -5 -7 -2 -8
7 -3 12 8 12 6 0 -8 -7 -9 -17 -14 -22 -11 -5 3 -6 -1 -3 -9 3 -9 -4 -21 -15
-29 -12 -8 -18 -18 -14 -21 3 -4 0 -7 -7 -7 -7 0 -10 -3 -7 -7 4 -3 1 -13 -5
-21 -7 -8 -13 -22 -13 -31 0 -11 -8 -15 -25 -14 l-25 2 23 -11 c12 -6 22 -15
22 -20 0 -5 -3 -7 -7 -5 -11 7 -6 -101 6 -134 7 -20 6 -29 -2 -33 -9 -3 -9 -5
0 -5 15 -1 47 -67 38 -80 -3 -7 0 -8 9 -5 15 6 21 -6 16 -31 -1 -5 2 -7 5 -3
7 7 96 -49 103 -64 2 -5 13 -8 23 -8 11 0 17 -5 14 -10 -4 -7 5 -9 24 -5 18 3
31 1 31 -5 0 -5 -6 -10 -14 -10 -8 0 -18 -4 -21 -10 -6 -10 22 -3 40 10 19 15
65 8 63 -8 -2 -8 4 -17 12 -19 11 -3 11 -2 3 4 -21 15 3 36 41 37 20 1 36 5
36 10 0 5 3 7 6 3 4 -3 13 1 22 9 12 13 16 13 23 2 7 -10 9 -8 9 6 0 13 5 17
19 13 15 -3 18 -1 14 11 -5 11 -2 14 10 9 9 -3 19 -1 23 5 4 7 3 8 -4 4 -7 -4
-12 -2 -12 3 0 6 7 11 16 11 9 0 12 5 8 12 -5 8 -2 9 9 5 9 -3 16 -3 14 1 -1
4 11 33 26 64 21 43 32 56 45 52 14 -5 14 -4 3 4 -15 11 -24 42 -12 42 4 0 4
25 1 55 -4 36 -2 55 4 55 6 0 5 4 -2 9 -8 4 -13 11 -13 15 1 9 -9 38 -27 76
-8 19 -15 39 -14 43 2 5 -1 6 -6 3 -13 -8 -49 37 -44 53 3 8 0 11 -7 7 -20
-13 -32 3 -20 27 9 20 9 21 -5 4 -15 -19 -32 -15 -80 23 -12 9 -16 10 -12 3 6
-10 1 -11 -21 -2 -34 13 -114 16 -132 4 -10 -5 -11 -2 -6 14 3 11 4 21 1 21
-2 0 -7 -8 -10 -18z"/>
<path d="M1300 1640 c-8 -5 -10 -10 -5 -10 6 0 17 5 25 10 8 5 11 10 5 10 -5
0 -17 -5 -25 -10z"/>
<path d="M1360 1640 c-9 -6 -10 -10 -3 -10 6 0 15 5 18 10 8 12 4 12 -15 0z"/>
<path d="M1410 1640 c0 -5 5 -10 11 -10 5 0 7 5 4 10 -3 6 -8 10 -11 10 -2 0
-4 -4 -4 -10z"/>
<path d="M1520 1636 c0 -8 4 -17 9 -20 5 -4 7 3 4 14 -6 23 -13 26 -13 6z"/>
<path d="M697 1609 c7 -7 15 -10 18 -7 3 3 -2 9 -12 12 -14 6 -15 5 -6 -5z"/>
<path d="M1086 1611 c-17 -6 -17 -8 -4 -14 10 -3 19 0 22 9 3 8 4 14 3 13 -1
0 -11 -4 -21 -8z"/>
<path d="M1446 1611 c-19 -7 -19 -8 0 -13 13 -3 21 0 21 8 0 8 -1 14 -1 13 -1
0 -10 -4 -20 -8z"/>
<path d="M917 1596 c-3 -8 0 -17 7 -19 10 -4 12 1 9 14 -6 23 -9 24 -16 5z"/>
<path d="M988 1592 c-4 -12 1 -18 13 -18 12 0 15 4 9 12 -6 6 -7 14 -3 17 3 4
2 7 -4 7 -6 0 -13 -8 -15 -18z"/>
<path d="M1146 1598 c3 -5 10 -6 15 -3 13 9 11 12 -6 12 -8 0 -12 -4 -9 -9z"/>
<path d="M1562 1601 c-11 -6 -9 -9 6 -13 15 -4 19 -2 15 8 -6 16 -4 16 -21 5z"/>
<path d="M1830 1596 c7 -7 13 -7 20 0 6 6 3 10 -10 10 -13 0 -16 -4 -10 -10z"/>
<path d="M790 1581 c0 -5 8 -15 18 -22 15 -12 16 -12 5 2 -7 9 -10 19 -6 22 3
4 1 7 -5 7 -7 0 -12 -4 -12 -9z"/>
<path d="M1884 1575 c-4 -8 -11 -12 -17 -8 -6 3 -7 1 -3 -5 11 -18 23 -14 29
8 6 23 -1 27 -9 5z"/>
<path d="M1678 1573 c7 -3 16 -2 19 1 4 3 -2 6 -13 5 -11 0 -14 -3 -6 -6z"/>
<path d="M670 1561 c0 -6 4 -12 8 -15 5 -3 9 1 9 9 0 8 -4 15 -9 15 -4 0 -8
-4 -8 -9z"/>
<path d="M947 1563 c-3 -5 6 -9 20 -10 19 -1 22 1 12 8 -17 11 -26 11 -32 2z"/>
<path d="M1585 1559 c-3 -4 2 -6 10 -5 21 3 28 13 10 13 -9 0 -18 -4 -20 -8z"/>
<path d="M1730 1566 c0 -2 7 -7 16 -10 8 -3 12 -2 9 4 -6 10 -25 14 -25 6z"/>
<path d="M1790 1558 c0 -4 4 -8 9 -8 6 0 12 4 15 8 3 5 -1 9 -9 9 -8 0 -15 -4
-15 -9z"/>
<path d="M706 1536 c6 -15 4 -17 -6 -11 -9 6 -11 4 -5 -4 5 -9 10 -10 18 -2 8
8 7 14 -2 24 -10 10 -11 8 -5 -7z"/>
<path d="M1028 1543 c7 -3 16 -2 19 1 4 3 -2 6 -13 5 -11 0 -14 -3 -6 -6z"/>
<path d="M1710 1534 c6 -6 7 -14 3 -17 -3 -4 -2 -7 4 -7 6 0 13 8 15 18 4 12
-1 18 -13 18 -12 0 -15 -4 -9 -12z"/>
<path d="M1580 1530 c0 -5 -7 -7 -15 -4 -8 4 -15 2 -15 -4 0 -14 33 -8 38 6 2
7 1 12 -2 12 -3 0 -6 -4 -6 -10z"/>
<path d="M1822 1527 c10 -8 15 -16 12 -19 -2 -3 2 -8 10 -11 11 -4 13 -1 9 10
-4 10 -2 14 4 10 5 -3 10 1 10 9 0 10 -4 11 -10 5 -7 -7 -17 -7 -31 0 -19 9
-19 9 -4 -4z"/>
<path d="M787 1519 c7 -9 10 -19 6 -22 -3 -4 -1 -7 5 -7 17 0 15 16 -5 31 -16
12 -17 12 -6 -2z"/>
<path d="M1617 1516 c-4 -10 1 -12 14 -9 23 6 24 9 5 16 -8 3 -17 0 -19 -7z"/>
<path d="M1761 1516 c-9 -10 -8 -15 3 -19 11 -4 13 -1 9 10 -5 12 -3 14 7 8 9
-5 11 -4 6 3 -9 15 -11 15 -25 -2z"/>
<path d="M1893 1517 c-4 -6 -1 -7 7 -2 10 6 12 4 7 -8 -4 -10 -2 -14 7 -11 7
3 13 11 13 18 0 15 -25 17 -34 3z"/>
<path d="M1679 1508 c-6 -19 -4 -50 4 -55 6 -4 7 -1 2 7 -6 9 -4 12 6 8 10 -4
15 1 15 12 0 11 -5 16 -15 12 -9 -3 -12 -1 -7 6 4 7 5 12 2 12 -3 0 -6 -1 -7
-2z"/>
<path d="M647 1486 c-15 -12 -16 -15 -2 -26 13 -11 14 -10 9 5 -5 11 -4 16 3
12 5 -3 10 0 10 8 0 8 -1 15 -1 15 -1 0 -9 -7 -19 -14z"/>
<path d="M1734 1479 c0 -13 3 -15 13 -7 7 6 13 12 13 13 0 2 -6 5 -13 8 -7 3
-13 -3 -13 -14z"/>
<path d="M754 1482 c4 -3 14 -7 22 -8 9 -1 13 0 10 4 -4 3 -14 7 -22 8 -9 1
-13 0 -10 -4z"/>
<path d="M865 1479 c-4 -6 -5 -12 -2 -15 2 -3 7 2 10 11 7 17 1 20 -8 4z"/>
<path d="M1590 1486 c0 -2 7 -7 16 -10 8 -3 12 -2 9 4 -6 10 -25 14 -25 6z"/>
<path d="M1790 1481 c0 -6 4 -12 8 -15 5 -3 9 1 9 9 0 8 -4 15 -9 15 -4 0 -8
-4 -8 -9z"/>
<path d="M1870 1481 c0 -6 4 -12 8 -15 5 -3 9 1 9 9 0 8 -4 15 -9 15 -4 0 -8
-4 -8 -9z"/>
<path d="M716 1467 c3 -10 9 -15 12 -12 3 3 0 11 -7 18 -10 9 -11 8 -5 -6z"/>
<path d="M895 1470 c-4 -6 1 -7 11 -3 13 5 15 3 9 -7 -5 -9 -4 -11 4 -6 6 4 9
12 6 17 -8 12 -22 12 -30 -1z"/>
<path d="M1827 1453 c5 -12 3 -14 -8 -8 -8 5 -11 4 -6 0 4 -5 14 -10 22 -11
12 -2 12 2 5 17 -13 23 -22 25 -13 2z"/>
<path d="M688 1453 c-10 -2 -18 -9 -18 -15 0 -6 3 -8 7 -5 3 4 11 3 17 -3 8
-6 12 -3 12 11 0 10 0 18 -1 18 0 -1 -8 -3 -17 -6z"/>
<path d="M1612 1451 c2 -8 18 -15 36 -16 17 -1 29 2 27 5 -3 4 -15 7 -27 6
-13 -1 -27 3 -31 9 -5 6 -7 5 -5 -4z"/>
<path d="M870 1436 c7 -7 13 -7 20 0 6 6 3 10 -10 10 -13 0 -16 -4 -10 -10z"/>
<path d="M950 1440 c0 -5 5 -10 10 -10 6 0 10 5 10 10 0 6 -4 10 -10 10 -5 0
-10 -4 -10 -10z"/>
<path d="M1713 1435 c0 -8 6 -16 13 -19 7 -3 10 2 7 15 -6 22 -20 26 -20 4z"/>
<path d="M1920 1429 c13 -23 22 -25 13 -2 -5 12 -3 14 8 8 8 -5 11 -4 6 0 -4
5 -14 10 -22 11 -12 2 -12 -2 -5 -17z"/>
<path d="M1760 1436 c0 -2 7 -7 16 -10 8 -3 12 -2 9 4 -6 10 -25 14 -25 6z"/>
<path d="M645 1422 c-5 -4 -11 -12 -12 -19 -3 -13 22 -12 34 2 5 4 2 5 -6 0
-11 -6 -13 -4 -8 8 7 19 6 20 -8 9z"/>
<path d="M924 1415 c-4 -8 -11 -12 -17 -8 -6 3 -7 1 -3 -5 11 -18 23 -14 29 8
6 23 -1 27 -9 5z"/>
<path d="M731 1404 c0 -11 3 -14 6 -6 3 7 2 16 -1 19 -3 4 -6 -2 -5 -13z"/>
<path d="M1633 1413 c-17 -6 -17 -20 0 -20 8 0 14 6 14 14 0 7 -1 13 -1 12 -1
0 -7 -3 -13 -6z"/>
<path d="M1749 1403 c-13 -16 -12 -17 4 -4 9 7 17 15 17 17 0 8 -8 3 -21 -13z"/>
<path d="M830 1398 c0 -4 4 -8 9 -8 6 0 12 4 15 8 3 5 -1 9 -9 9 -8 0 -15 -4
-15 -9z"/>
<path d="M1707 1399 c7 -7 15 -10 18 -7 3 3 -2 9 -12 12 -14 6 -15 5 -6 -5z"/>
<path d="M1794 1395 c1 -8 6 -18 11 -22 4 -5 5 -2 0 6 -6 11 -4 13 10 7 15 -5
16 -4 5 9 -16 19 -29 19 -26 0z"/>
<path d="M1945 1400 c-3 -6 1 -7 9 -4 18 7 21 14 7 14 -6 0 -13 -4 -16 -10z"/>
<path d="M1682 1381 c-10 -6 -10 -10 2 -20 11 -9 16 -9 22 0 5 8 3 9 -6 4 -10
-6 -12 -4 -7 8 7 19 7 20 -11 8z"/>
<path d="M1836 1375 c-9 -26 -7 -32 5 -12 6 10 9 21 6 23 -2 3 -7 -2 -11 -11z"/>
<path d="M1956 1382 c-2 -4 0 -14 6 -22 8 -12 9 -11 4 4 -5 14 -2 17 9 12 9
-3 13 -2 10 4 -7 12 -22 13 -29 2z"/>
<path d="M862 1367 c10 -8 15 -16 12 -19 -2 -3 2 -8 10 -11 11 -4 13 -1 9 10
-4 10 -2 14 4 10 5 -3 10 1 10 9 0 10 -4 11 -10 5 -7 -7 -17 -7 -31 0 -19 9
-19 9 -4 -4z"/>
<path d="M1755 1370 c6 -9 4 -12 -7 -8 -8 4 -15 1 -15 -7 0 -7 8 -10 19 -7 21
5 23 17 6 28 -7 5 -8 3 -3 -6z"/>
<path d="M667 1351 c-3 -13 -1 -18 9 -14 7 2 10 11 7 19 -7 19 -10 18 -16 -5z"/>
<path d="M804 1359 c-3 -6 -1 -16 5 -22 9 -9 10 -7 5 7 -6 15 -4 17 6 11 9 -5
11 -4 6 3 -9 15 -13 15 -22 1z"/>
<path d="M935 1359 c-6 -8 -4 -10 5 -4 10 6 12 4 6 -11 -6 -15 -5 -17 5 -6 9
9 10 15 2 23 -8 8 -13 7 -18 -2z"/>
<path d="M1643 1335 c-3 -9 -3 -18 -1 -21 3 -3 8 4 11 16 6 23 -1 27 -10 5z"/>
<path d="M1790 1331 c4 -9 9 -20 10 -26 1 -5 4 -12 7 -15 4 -3 2 1 -2 9 -6 10
-4 13 6 9 10 -4 15 1 15 13 0 14 -3 16 -15 6 -12 -10 -14 -9 -9 4 4 9 1 16 -7
16 -10 0 -11 -5 -5 -16z"/>
<path d="M714 1329 c-3 -6 -2 -15 3 -20 5 -5 9 -1 9 11 0 23 -2 24 -12 9z"/>
<path d="M1941 1324 c0 -11 3 -14 6 -6 3 7 2 16 -1 19 -3 4 -6 -2 -5 -13z"/>
<path d="M770 1320 c0 -5 5 -10 10 -10 6 0 10 5 10 10 0 6 -4 10 -10 10 -5 0
-10 -4 -10 -10z"/>
<path d="M830 1320 c0 -5 5 -10 10 -10 6 0 10 5 10 10 0 6 -4 10 -10 10 -5 0
-10 -4 -10 -10z"/>
<path d="M910 1320 c0 -5 5 -10 10 -10 6 0 10 5 10 10 0 6 -4 10 -10 10 -5 0
-10 -4 -10 -10z"/>
<path d="M1710 1322 c0 -5 7 -9 15 -9 8 0 12 4 9 9 -3 4 -9 8 -15 8 -5 0 -9
-4 -9 -8z"/>
<path d="M1851 1314 c0 -11 3 -14 6 -6 3 7 2 16 -1 19 -3 4 -6 -2 -5 -13z"/>
<path d="M667 1289 c6 -23 9 -24 16 -5 3 8 0 17 -7 19 -10 4 -12 -1 -9 -14z"/>
<path d="M800 1291 c-7 -15 -7 -19 5 -17 8 1 18 6 22 11 5 4 2 5 -6 0 -11 -6
-13 -4 -8 8 9 23 0 21 -13 -2z"/>
<path d="M880 1300 c-9 -6 -10 -10 -3 -10 6 0 15 5 18 10 8 12 4 12 -15 0z"/>
<path d="M946 1296 c6 -15 4 -17 -6 -11 -9 6 -11 4 -5 -4 5 -9 10 -10 18 -2 8
8 7 14 -2 24 -10 10 -11 8 -5 -7z"/>
<path d="M1742 1286 c10 -7 14 -17 10 -21 -4 -5 -1 -5 6 -1 19 11 14 23 -10
29 -21 5 -21 5 -6 -7z"/>
<path d="M1981 1283 c7 -12 15 -20 18 -17 3 2 -3 12 -13 22 -17 16 -18 16 -5
-5z"/>
<path d="M853 1275 c0 -5 12 -10 27 -10 15 0 27 5 27 10 0 6 -12 10 -27 10
-15 0 -27 -4 -27 -10z"/>
<path d="M1830 1278 c0 -4 4 -8 9 -8 6 0 12 4 15 8 3 5 -1 9 -9 9 -8 0 -15 -4
-15 -9z"/>
<path d="M1788 1248 c5 -21 17 -23 28 -6 5 7 3 8 -6 3 -9 -6 -12 -4 -8 7 4 8
1 15 -7 15 -7 0 -10 -8 -7 -19z"/>
<path d="M1719 1247 c8 -9 16 -15 19 -12 3 3 12 -1 21 -8 14 -11 14 -10 2 6
-8 9 -16 15 -19 12 -3 -3 -12 1 -21 8 -14 11 -14 10 -2 -6z"/>
<path d="M628 1244 c6 -3 10 -9 7 -14 -3 -4 2 -10 10 -13 10 -4 12 -1 8 10 -5
12 -3 14 8 8 8 -4 11 -4 6 0 -4 5 -18 10 -30 11 -12 2 -16 0 -9 -2z"/>
<path d="M827 1228 c-5 -21 -5 -21 7 -6 7 10 17 14 21 10 5 -4 5 -1 1 6 -11
19 -23 14 -29 -10z"/>
<path d="M904 1238 c-4 -7 -4 -10 1 -6 4 4 14 0 21 -10 12 -15 12 -15 7 6 -6
24 -18 29 -29 10z"/>
<path d="M1875 1240 c-3 -5 -1 -10 4 -10 6 0 11 5 11 10 0 6 -2 10 -4 10 -3 0
-8 -4 -11 -10z"/>
<path d="M1926 1242 c-3 -5 1 -9 9 -9 8 0 15 4 15 9 0 4 -4 8 -9 8 -6 0 -12
-4 -15 -8z"/>
<path d="M960 1231 c0 -6 4 -13 10 -16 6 -3 7 1 4 9 -7 18 -14 21 -14 7z"/>
<path d="M1674 1232 c3 -5 0 -13 -6 -15 -9 -4 -10 -6 -1 -6 17 -1 25 16 12 25
-7 4 -9 3 -5 -4z"/>
<path d="M1707 1224 c7 -3 9 -13 6 -22 -4 -14 -3 -14 5 -2 12 16 7 30 -11 29
-9 0 -9 -2 0 -5z"/>
<path d="M1961 1221 c-8 -5 -9 -11 -3 -15 5 -3 12 1 16 9 6 17 6 18 -13 6z"/>
<path d="M1772 1211 c-11 -7 -11 -9 0 -14 9 -3 15 1 15 9 0 8 -1 14 -1 14 -1
0 -7 -4 -14 -9z"/>
<path d="M1850 1211 c-8 -6 -17 -8 -21 -5 -4 2 -11 -1 -15 -7 -5 -8 -3 -9 6
-4 10 6 12 4 7 -8 -4 -11 -2 -14 9 -10 8 3 12 8 10 11 -3 3 2 11 12 18 19 15
14 18 -8 5z"/>
<path d="M610 1200 c0 -5 5 -10 10 -10 6 0 10 5 10 10 0 6 -4 10 -10 10 -5 0
-10 -4 -10 -10z"/>
<path d="M670 1199 c0 -3 9 -9 19 -12 13 -3 18 0 15 7 -5 13 -34 18 -34 5z"/>
<path d="M796 1193 c-6 -14 -5 -15 5 -6 7 7 10 15 7 18 -3 3 -9 -2 -12 -12z"/>
<path d="M866 1202 c-2 -4 4 -8 14 -8 10 0 16 4 14 8 -3 4 -9 8 -14 8 -5 0
-11 -4 -14 -8z"/>
<path d="M950 1200 c0 -5 5 -10 11 -10 5 0 7 5 4 10 -3 6 -8 10 -11 10 -2 0
-4 -4 -4 -10z"/>
<path d="M1894 1198 c-5 -7 -3 -8 6 -3 10 6 12 4 7 -8 -4 -11 -2 -14 9 -10 11
4 12 9 3 19 -14 17 -16 17 -25 2z"/>
<path d="M707 1165 c-16 -23 -16 -24 -1 -18 13 5 15 3 9 -8 -4 -8 -4 -11 0 -7
7 7 18 59 12 58 -1 0 -10 -12 -20 -25z"/>
<path d="M836 1182 c-2 -4 -1 -14 4 -22 7 -11 9 -9 7 8 -1 24 -3 26 -11 14z"/>
<path d="M913 1175 c0 -8 4 -12 9 -9 5 3 6 10 3 15 -9 13 -12 11 -12 -6z"/>
<path d="M1668 1176 c5 -11 17 -21 26 -22 9 -1 13 2 10 8 -3 5 -8 7 -12 4 -3
-3 -11 2 -19 12 -13 16 -14 16 -5 -2z"/>
<path d="M1750 1186 c0 -2 7 -7 16 -10 8 -3 12 -2 9 4 -6 10 -25 14 -25 6z"/>
<path d="M860 1171 c0 -6 4 -13 10 -16 6 -3 7 1 4 9 -7 18 -14 21 -14 7z"/>
<path d="M1875 1170 c-4 -6 -11 -8 -16 -5 -5 4 -9 1 -9 -4 0 -16 16 -13 30 4
7 8 10 15 7 15 -3 0 -9 -5 -12 -10z"/>
<path d="M1930 1170 c-9 -6 -10 -10 -3 -10 6 0 15 5 18 10 8 12 4 12 -15 0z"/>
<path d="M646 1161 c-19 -7 -19 -8 0 -13 13 -3 21 0 21 8 0 8 -1 14 -1 13 -1
0 -10 -4 -20 -8z"/>
<path d="M970 1166 c0 -2 7 -7 16 -10 8 -3 12 -2 9 4 -6 10 -25 14 -25 6z"/>
<path d="M1790 1161 c0 -6 4 -12 8 -15 5 -3 9 1 9 9 0 8 -4 15 -9 15 -4 0 -8
-4 -8 -9z"/>
<path d="M1908 1143 c7 -3 16 -2 19 1 4 3 -2 6 -13 5 -11 0 -14 -3 -6 -6z"/>
<path d="M766 1131 c-17 -6 -17 -8 -4 -14 10 -3 19 0 22 9 3 8 4 14 3 13 -1 0
-11 -4 -21 -8z"/>
<path d="M990 1136 c0 -2 8 -10 18 -17 15 -13 16 -12 3 4 -13 16 -21 21 -21
13z"/>
<path d="M667 1111 c-3 -13 0 -18 7 -15 7 3 13 11 13 19 0 22 -14 18 -20 -4z"/>
<path d="M960 1109 c13 -23 22 -25 13 -2 -5 12 -3 14 8 8 8 -5 11 -4 6 0 -4 5
-14 10 -22 11 -12 2 -12 -2 -5 -17z"/>
<path d="M1600 1115 c-7 -8 -9 -15 -4 -15 4 0 3 -5 -4 -12 -7 -7 -12 -17 -12
-22 1 -10 24 23 25 34 0 3 4 11 8 18 11 17 2 15 -13 -3z"/>
<path d="M1950 1120 c0 -5 5 -10 11 -10 5 0 7 5 4 10 -3 6 -8 10 -11 10 -2 0
-4 -4 -4 -10z"/>
<path d="M1760 1116 c0 -2 7 -7 16 -10 8 -3 12 -2 9 4 -6 10 -25 14 -25 6z"/>
<path d="M1919 1088 c-6 -13 -8 -20 -4 -16 5 4 13 3 20 -2 8 -7 12 -5 12 5 0
8 -5 11 -10 8 -6 -4 -8 0 -4 10 9 25 0 21 -14 -5z"/>
<path d="M647 1079 c7 -7 15 -10 18 -7 3 3 -2 9 -12 12 -14 6 -15 5 -6 -5z"/>
<path d="M785 1079 c-3 -4 2 -6 10 -5 21 3 28 13 10 13 -9 0 -18 -4 -20 -8z"/>
<path d="M940 1080 c8 -5 20 -10 25 -10 6 0 3 5 -5 10 -8 5 -19 10 -25 10 -5
0 -3 -5 5 -10z"/>
<path d="M990 1086 c0 -2 7 -7 16 -10 8 -3 12 -2 9 4 -6 10 -25 14 -25 6z"/>
<path d="M1639 1088 c-5 -18 -6 -38 -1 -34 7 8 12 36 6 36 -2 0 -4 -1 -5 -2z"/>
<path d="M1700 1080 c8 -5 20 -10 25 -10 6 0 3 5 -5 10 -8 5 -19 10 -25 10 -5
0 -3 -5 5 -10z"/>
<path d="M1797 1075 c-4 -8 -1 -17 5 -21 7 -5 8 -2 3 6 -6 10 -4 12 10 6 15
-5 16 -4 5 9 -15 19 -16 19 -23 0z"/>
<path d="M925 1062 c-13 -9 -17 -32 -6 -32 5 0 11 9 14 20 6 22 6 22 -8 12z"/>
<path d="M987 1049 c6 -22 20 -26 20 -4 0 8 -6 16 -13 19 -7 3 -10 -2 -7 -15z"/>
<path d="M1682 1058 c-7 -7 -12 -15 -12 -19 0 -9 27 -5 37 6 5 4 2 5 -6 0 -11
-6 -13 -4 -8 8 8 20 5 21 -11 5z"/>
<path d="M1750 1056 c13 -18 13 -19 -1 -14 -9 4 -16 1 -16 -7 0 -7 8 -10 19
-7 23 6 23 16 1 33 -17 13 -17 13 -3 -5z"/>
<path d="M1836 1055 c-9 -26 -7 -32 5 -12 6 10 9 21 6 23 -2 3 -7 -2 -11 -11z"/>
<path d="M1910 1050 c8 -5 20 -10 25 -10 6 0 3 5 -5 10 -8 5 -19 10 -25 10 -5
0 -3 -5 5 -10z"/>
<path d="M679 1048 c-6 -21 -5 -38 1 -38 5 0 8 9 7 20 -1 17 -5 26 -8 18z"/>
<path d="M814 1039 c-3 -6 -3 -13 0 -16 3 -4 6 -1 6 5 0 6 7 9 15 6 8 -4 15
-4 15 -1 0 11 -30 16 -36 6z"/>
<path d="M1050 1042 c0 -5 7 -9 15 -9 8 0 12 4 9 9 -3 4 -9 8 -15 8 -5 0 -9
-4 -9 -8z"/>
<path d="M1590 1036 c7 -7 13 -7 20 0 6 6 3 10 -10 10 -13 0 -16 -4 -10 -10z"/>
<path d="M876 1022 c-6 -10 5 -26 20 -29 6 -1 11 4 11 12 0 7 -7 11 -15 7 -10
-3 -13 -1 -8 6 4 7 5 12 2 12 -3 0 -7 -4 -10 -8z"/>
<path d="M1035 1020 c6 -9 4 -12 -7 -8 -8 4 -15 1 -15 -6 0 -17 25 -16 31 0 3
8 0 16 -6 20 -7 5 -8 2 -3 -6z"/>
<path d="M1085 1020 c-3 -6 1 -7 9 -4 18 7 21 14 7 14 -6 0 -13 -4 -16 -10z"/>
<path d="M1547 1013 c6 -25 18 -30 29 -10 4 6 4 9 -1 5 -4 -4 -14 0 -21 10
-12 15 -12 15 -7 -5z"/>
<path d="M1644 1015 c-4 -8 -11 -12 -17 -8 -6 3 -7 1 -3 -5 11 -18 23 -14 29
8 6 23 -1 27 -9 5z"/>
<path d="M1787 1013 c3 -7 6 -13 8 -13 2 0 5 6 8 13 3 8 -1 14 -8 14 -7 0 -11
-6 -8 -14z"/>
<path d="M945 1003 c14 -16 16 -16 33 1 16 18 16 18 -4 8 -13 -7 -25 -8 -33
-2 -6 6 -4 2 4 -7z"/>
<path d="M714 999 c-4 -7 -3 -9 4 -5 5 3 13 0 15 -6 4 -9 6 -10 6 -1 1 17 -16
25 -25 12z"/>
<path d="M804 999 c-4 -7 -3 -9 4 -5 5 3 13 0 15 -6 4 -9 6 -10 6 -1 1 17 -16
25 -25 12z"/>
<path d="M1480 996 c0 -8 4 -17 9 -20 5 -4 7 3 4 14 -6 23 -13 26 -13 6z"/>
<path d="M1707 988 c-5 -21 -5 -21 7 -6 7 10 17 14 21 10 5 -4 5 -1 1 6 -11
19 -23 14 -29 -10z"/>
<path d="M1841 996 c-9 -10 -9 -16 -1 -21 6 -4 10 -3 9 2 -3 20 2 27 11 13 6
-9 10 -10 10 -3 0 19 -17 24 -29 9z"/>
<path d="M1573 965 c0 -5 12 -10 27 -10 15 0 27 5 27 10 0 6 -12 10 -27 10
-15 0 -27 -4 -27 -10z"/>
<path d="M696 957 c3 -10 9 -15 12 -12 3 3 0 11 -7 18 -10 9 -11 8 -5 -6z"/>
<path d="M922 961 c-11 -6 -9 -9 6 -13 15 -4 19 -2 15 8 -6 16 -4 16 -21 5z"/>
<path d="M1130 962 c0 -4 10 -9 22 -9 18 -2 20 0 8 7 -18 12 -30 13 -30 2z"/>
<path d="M1424 962 c4 -3 14 -7 22 -8 9 -1 13 0 10 4 -4 3 -14 7 -22 8 -9 1
-13 0 -10 -4z"/>
<path d="M1510 960 c0 -4 7 -13 15 -20 13 -11 14 -10 9 5 -6 14 -4 16 7 10 8
-5 11 -4 6 0 -10 12 -37 15 -37 5z"/>
<path d="M1654 958 c-5 -7 -2 -8 6 -3 10 6 12 4 6 -10 -5 -15 -4 -16 9 -5 19
15 19 16 0 23 -8 4 -17 1 -21 -5z"/>
<path d="M1880 955 c-7 -9 -8 -15 -2 -15 5 0 12 7 16 15 3 8 4 15 2 15 -2 0
-9 -7 -16 -15z"/>
<path d="M1266 935 c5 -11 4 -16 -3 -12 -5 3 -10 0 -10 -8 0 -12 3 -12 16 -3
9 7 17 13 19 14 1 1 -4 7 -13 14 -13 11 -14 10 -9 -5z"/>
<path d="M1474 936 c1 -8 5 -18 8 -22 4 -3 5 1 4 10 -1 8 -5 18 -8 22 -4 3 -5
-1 -4 -10z"/>
<path d="M1585 940 c-3 -6 1 -7 9 -4 18 7 21 14 7 14 -6 0 -13 -4 -16 -10z"/>
<path d="M759 923 c0 -5 -2 -15 -4 -24 -1 -9 0 -22 4 -28 4 -7 8 4 8 24 0 30
-6 50 -8 28z"/>
<path d="M806 922 c-3 -5 1 -9 9 -9 8 0 15 4 15 9 0 4 -4 8 -9 8 -6 0 -12 -4
-15 -8z"/>
<path d="M950 916 c7 -7 13 -7 20 0 6 6 3 10 -10 10 -13 0 -16 -4 -10 -10z"/>
<path d="M1100 920 c8 -5 20 -10 25 -10 6 0 3 5 -5 10 -8 5 -19 10 -25 10 -5
0 -3 -5 5 -10z"/>
<path d="M1200 921 c0 -5 7 -12 16 -15 14 -5 15 -4 4 9 -14 17 -20 19 -20 6z"/>
<path d="M1307 919 c7 -7 15 -10 18 -7 3 3 -2 9 -12 12 -14 6 -15 5 -6 -5z"/>
<path d="M1394 915 c1 -8 6 -18 11 -22 4 -5 5 -2 0 6 -6 11 -4 13 8 8 23 -9
21 0 -2 13 -15 7 -19 7 -17 -5z"/>
<path d="M1540 920 c-8 -5 -10 -10 -5 -10 6 0 17 5 25 10 8 5 11 10 5 10 -5 0
-17 -5 -25 -10z"/>
<path d="M1640 920 c8 -5 20 -10 25 -10 6 0 3 5 -5 10 -8 5 -19 10 -25 10 -5
0 -3 -5 5 -10z"/>
<path d="M1835 920 c3 -5 8 -10 11 -10 2 0 4 5 4 10 0 6 -5 10 -11 10 -5 0 -7
-4 -4 -10z"/>
<path d="M870 916 c0 -2 7 -9 15 -16 13 -11 14 -10 9 4 -5 14 -24 23 -24 12z"/>
<path d="M845 902 c-13 -9 -17 -32 -6 -32 5 0 11 9 14 20 6 22 6 22 -8 12z"/>
<path d="M1070 894 c6 -6 7 -14 3 -17 -3 -4 -2 -7 4 -7 6 0 13 8 15 18 4 12
-1 18 -13 18 -12 0 -15 -4 -9 -12z"/>
<path d="M1282 902 c-10 -7 -8 -12 6 -25 15 -14 19 -14 19 -2 0 8 -5 11 -10 8
-6 -4 -8 0 -4 10 7 19 7 20 -11 9z"/>
<path d="M1346 895 c6 -14 4 -16 -7 -10 -8 5 -11 4 -6 0 10 -12 37 -15 37 -5
0 4 -7 13 -15 20 -13 11 -14 10 -9 -5z"/>
<path d="M910 879 c0 -3 9 -9 19 -12 13 -3 18 0 15 7 -5 13 -34 18 -34 5z"/>
<path d="M977 876 c-4 -10 1 -12 14 -9 23 6 24 9 5 16 -8 3 -17 0 -19 -7z"/>
<path d="M1157 876 c-3 -8 0 -17 7 -19 10 -4 12 1 9 14 -6 23 -9 24 -16 5z"/>
<path d="M1233 875 c0 -8 6 -16 13 -19 7 -3 10 2 7 15 -6 22 -20 26 -20 4z"/>
<path d="M1424 882 c4 -3 14 -7 22 -8 9 -1 13 0 10 4 -4 3 -14 7 -22 8 -9 1
-13 0 -10 -4z"/>
<path d="M794 872 c3 -5 2 -12 -4 -14 -6 -2 -2 -8 9 -15 15 -10 20 -9 25 2 3
10 0 12 -11 8 -10 -4 -14 -2 -9 5 3 6 1 14 -5 18 -7 4 -9 3 -5 -4z"/>
<path d="M878 843 c6 -33 17 -36 17 -4 0 15 -5 28 -11 28 -6 0 -9 -11 -6 -24z"/>
<path d="M1039 868 c-6 -19 -4 -50 4 -55 6 -4 7 -1 2 7 -6 9 -4 12 6 8 10 -4
15 1 15 12 0 11 -5 16 -15 12 -9 -3 -12 -1 -7 6 4 7 5 12 2 12 -3 0 -6 -1 -7
-2z"/>
<path d="M1386 857 c3 -10 9 -15 12 -12 3 3 0 11 -7 18 -10 9 -11 8 -5 -6z"/>
<path d="M856 847 c3 -10 9 -15 12 -12 3 3 0 11 -7 18 -10 9 -11 8 -5 -6z"/>
<path d="M1097 844 c2 -7 11 -10 19 -7 19 7 18 10 -5 16 -13 3 -18 1 -14 -9z"/>
<path d="M1269 843 c-13 -16 -12 -17 4 -4 9 7 17 15 17 17 0 8 -8 3 -21 -13z"/>
<path d="M1443 841 c-12 -19 0 -41 14 -27 4 3 1 6 -6 6 -7 0 -9 5 -6 10 4 6
10 8 15 5 5 -3 12 0 16 6 4 7 3 9 -4 5 -5 -3 -12 -2 -14 4 -2 6 -9 1 -15 -9z"/>
<path d="M1741 844 c0 -11 3 -14 6 -6 3 7 2 16 -1 19 -3 4 -6 -2 -5 -13z"/>
<path d="M950 842 c0 -5 7 -9 15 -9 8 0 12 4 9 9 -3 4 -9 8 -15 8 -5 0 -9 -4
-9 -8z"/>
<path d="M1307 828 c-5 -21 -5 -21 7 -6 7 10 17 14 21 10 5 -4 5 -1 1 6 -11
19 -23 14 -29 -10z"/>
<path d="M1515 840 c-3 -5 -1 -10 4 -10 6 0 11 5 11 10 0 6 -2 10 -4 10 -3 0
-8 -4 -11 -10z"/>
<path d="M1673 832 c0 -12 5 -22 9 -22 11 0 10 12 -2 30 -7 12 -9 10 -7 -8z"/>
<path d="M1115 821 c-3 -5 0 -13 6 -17 7 -4 9 -3 5 4 -3 5 0 13 6 15 9 4 10 6
1 6 -6 1 -14 -3 -18 -8z"/>
<path d="M1272 815 c4 -4 0 -14 -10 -21 -15 -12 -15 -12 6 -7 24 6 29 18 10
29 -7 4 -10 4 -6 -1z"/>
<path d="M1588 813 c6 -2 18 -2 25 0 6 3 1 5 -13 5 -14 0 -19 -2 -12 -5z"/>
<path d="M830 799 c0 -5 5 -7 10 -4 6 3 10 8 10 11 0 2 -4 4 -10 4 -5 0 -10
-5 -10 -11z"/>
<path d="M922 801 c-11 -6 -9 -9 6 -13 15 -4 19 -2 15 8 -6 16 -4 16 -21 5z"/>
<path d="M1077 796 c-3 -8 0 -17 7 -19 10 -4 12 1 9 14 -6 23 -9 24 -16 5z"/>
<path d="M1195 799 c-3 -4 2 -6 10 -5 21 3 28 13 10 13 -9 0 -18 -4 -20 -8z"/>
<path d="M1350 805 c0 -5 5 -17 10 -25 5 -8 10 -10 10 -5 0 6 -5 17 -10 25 -5
8 -10 11 -10 5z"/>
<path d="M1482 801 c-11 -6 -9 -9 6 -13 15 -4 19 -2 15 8 -6 16 -4 16 -21 5z"/>
<path d="M1534 799 c-3 -6 -3 -13 0 -16 3 -4 6 -1 6 5 0 6 7 9 15 6 8 -4 15
-4 15 -1 0 11 -30 16 -36 6z"/>
<path d="M1642 801 c-11 -6 -9 -9 6 -13 15 -4 19 -2 15 8 -6 16 -4 16 -21 5z"/>
<path d="M855 789 c-4 -6 -5 -12 -2 -15 2 -3 7 2 10 11 7 17 1 20 -8 4z"/>
<path d="M1316 782 c-2 -4 -1 -14 3 -20 6 -10 11 -9 21 3 11 13 10 14 -5 9
-13 -5 -16 -4 -11 4 4 7 5 12 2 12 -3 0 -7 -4 -10 -8z"/>
<path d="M1430 783 c5 -2 8 -9 5 -13 -3 -5 5 -14 17 -20 22 -11 22 -11 3 5
-11 9 -19 19 -17 23 2 3 -1 7 -7 9 -7 1 -8 0 -1 -4z"/>
<path d="M950 762 c0 -5 7 -9 15 -9 8 0 12 4 9 9 -3 4 -9 8 -15 8 -5 0 -9 -4
-9 -8z"/>
<path d="M1110 760 c0 -5 5 -10 11 -10 5 0 7 5 4 10 -3 6 -8 10 -11 10 -2 0
-4 -4 -4 -10z"/>
<path d="M1220 755 c-11 -13 -10 -14 5 -9 14 6 16 4 10 -7 -5 -8 -4 -11 0 -6
12 10 15 37 5 37 -4 0 -13 -7 -20 -15z"/>
<path d="M1500 755 c-11 -13 -10 -14 4 -9 9 3 16 10 16 15 0 13 -6 11 -20 -6z"/>
<path d="M1530 761 c0 -6 4 -13 10 -16 6 -3 7 1 4 9 -7 18 -14 21 -14 7z"/>
<path d="M1655 759 c-4 -6 -4 -13 -1 -16 3 -4 6 -1 6 6 0 7 5 9 12 5 7 -4 8
-3 4 4 -9 15 -13 15 -21 1z"/>
<path d="M1577 753 c-3 -5 8 -8 23 -8 15 0 26 3 23 8 -2 4 -13 7 -23 7 -10 0
-21 -3 -23 -7z"/>
<path d="M1067 729 c6 -23 9 -24 16 -5 3 8 0 17 -7 19 -10 4 -12 -1 -9 -14z"/>
<path d="M1190 745 c0 -5 5 -17 10 -25 5 -8 10 -10 10 -5 0 6 -5 17 -10 25 -5
8 -10 11 -10 5z"/>
<path d="M926 731 c-19 -7 -19 -8 0 -13 13 -3 21 0 21 8 0 8 -1 14 -1 13 -1 0
-10 -4 -20 -8z"/>
<path d="M996 718 c3 -4 11 -5 19 -1 21 7 19 12 -4 10 -11 0 -18 -5 -15 -9z"/>
<path d="M1270 721 c0 -6 4 -12 8 -15 5 -3 9 1 9 9 0 8 -4 15 -9 15 -4 0 -8
-4 -8 -9z"/>
<path d="M1473 723 c4 -3 3 -11 -3 -17 -6 -8 -3 -12 9 -12 12 0 17 6 13 18 -2
10 -9 18 -15 18 -6 0 -7 -3 -4 -7z"/>
<path d="M1547 711 c-3 -13 0 -18 7 -15 7 3 13 11 13 19 0 22 -14 18 -20 -4z"/>
<path d="M1636 718 c3 -5 10 -6 15 -3 13 9 11 12 -6 12 -8 0 -12 -4 -9 -9z"/>
<path d="M955 700 c-3 -5 -1 -10 4 -10 6 0 11 5 11 10 0 6 -2 10 -4 10 -3 0
-8 -4 -11 -10z"/>
<path d="M1027 689 c4 -13 8 -18 11 -10 2 7 -1 18 -6 23 -8 8 -9 4 -5 -13z"/>
<path d="M1238 692 c4 -11 1 -13 -8 -7 -9 5 -11 4 -6 -3 11 -17 23 -15 28 6 3
11 0 19 -7 19 -8 0 -11 -7 -7 -15z"/>
<path d="M1420 696 c0 -2 7 -7 16 -10 8 -3 12 -2 9 4 -6 10 -25 14 -25 6z"/>
<path d="M1505 680 c-3 -6 1 -7 9 -4 18 7 21 14 7 14 -6 0 -13 -4 -16 -10z"/>
<path d="M1357 669 c7 -7 15 -10 18 -7 3 3 -2 9 -12 12 -14 6 -15 5 -6 -5z"/>
<path d="M1110 660 c0 -5 5 -10 10 -10 6 0 10 5 10 10 0 6 -4 10 -10 10 -5 0
-10 -4 -10 -10z"/>
<path d="M1307 664 c7 -3 9 -13 6 -22 -4 -14 -3 -14 5 -2 12 16 7 30 -11 29
-9 0 -9 -2 0 -5z"/>
<path d="M1439 648 c-6 -13 -8 -20 -4 -16 5 4 13 3 20 -2 8 -7 12 -5 12 5 0 8
-5 11 -10 8 -6 -4 -8 0 -4 10 9 25 0 21 -14 -5z"/>
<path d="M1517 663 c-10 -9 -9 -23 1 -23 5 0 9 7 9 15 0 17 -1 18 -10 8z"/>
<path d="M1548 663 c6 -2 18 -2 25 0 6 3 1 5 -13 5 -14 0 -19 -2 -12 -5z"/>
<path d="M1253 645 c0 -7 6 -11 14 -8 7 3 13 6 13 8 0 2 -6 5 -13 8 -8 3 -14
-1 -14 -8z"/>
</g>
</svg>
